<?xml version="1.0" standalone="no"?>
<!DOCTYPE svg PUBLIC "-//W3C//DTD SVG 20010904//EN"
 "http://www.w3.org/TR/2001/REC-SVG-20010904/DTD/svg10.dtd">
<svg version="1.0" xmlns="http://www.w3.org/2000/svg"
 width="200.000000pt" height="200.000000pt" viewBox="0 0 200.000000 200.000000"
 preserveAspectRatio="xMidYMid meet">

<g transform="translate(0.000000,200.000000) scale(0.100000,-0.100000)"
fill="#000000" stroke="none">
<path d="M319 1336 c-85 -33 -134 -78 -179 -166 -32 -63 -33 -184 -1 -255 29
-66 107 -138 177 -165 152 -56 330 16 399 163 32 68 32 185 0 254 -31 68 -79
120 -139 150 -62 32 -197 42 -257 19z m161 -316 c0 -13 1 -13 10 0 5 8 10 54
10 103 l0 87 40 0 40 0 0 -175 c0 -148 -2 -175 -15 -175 -8 0 -57 41 -107 90
l-93 91 -3 -91 -3 -90 -39 0 -39 0 0 172 c0 94 3 176 6 181 7 12 193 -173 193
-193z"/>
<path d="M308 1033 c3 -95 0 -133 -8 -133 -6 0 -8 -5 -5 -10 5 -8 11 -7 21 1
11 9 14 9 14 0 0 -7 5 -9 12 -5 8 5 6 11 -6 19 -13 10 -16 30 -15 114 0 55 4
101 8 101 3 0 49 -43 101 -95 52 -52 100 -95 106 -95 15 0 21 80 13 175 l-5
70 -4 -70 c-1 -38 -2 -89 0 -112 1 -24 -2 -43 -6 -43 -7 0 -35 26 -169 157
l-60 58 3 -132z"/>
<path d="M1405 1331 c-79 -33 -92 -149 -22 -191 99 -61 212 34 163 137 -24 49
-89 75 -141 54z m83 -63 c19 -19 14 -63 -8 -83 -46 -41 -116 29 -75 75 20 22
64 27 83 8z"/>
<path d="M822 1228 c3 -98 4 -103 26 -106 20 -3 22 0 22 52 0 30 -4 57 -9 60
-15 10 -1 45 16 39 8 -3 13 -14 10 -25 -8 -28 79 -130 107 -126 20 3 21 8 21
103 l0 100 -27 3 c-26 3 -27 2 -30 -52 l-3 -56 -42 55 c-32 41 -49 55 -68 55
l-26 0 3 -102z"/>
<path d="M1053 1228 c2 -103 2 -103 27 -103 25 0 25 0 26 103 l1 102 -27 0
-28 0 1 -102z"/>
<path d="M1140 1225 l0 -105 25 0 c22 0 25 4 25 34 0 50 13 51 49 6 22 -27 40
-40 56 -40 34 0 31 14 -11 71 -39 54 -40 51 15 112 l25 27 -37 0 c-29 0 -41
-6 -62 -35 -15 -19 -24 -38 -22 -43 3 -4 -3 -13 -13 -19 -15 -10 -19 -9 -23 8
-3 12 0 22 9 26 8 3 14 18 14 34 0 24 -4 29 -25 29 l-25 0 0 -105z"/>
<path d="M838 939 c-56 -32 -39 -87 34 -118 28 -11 47 -25 43 -31 -8 -13 -42
-13 -50 0 -7 12 -65 14 -65 2 0 -40 83 -69 136 -47 66 27 49 91 -34 126 -41
18 -45 22 -29 31 14 7 23 6 36 -6 25 -23 61 -21 61 3 0 41 -86 67 -132 40z"/>
<path d="M990 925 c0 -21 5 -25 30 -25 l30 0 0 -80 0 -80 30 0 29 0 3 78 c3
76 3 77 31 80 21 3 27 9 27 28 0 24 -1 24 -90 24 -89 0 -90 0 -90 -25z"/>
<path d="M1224 916 c-64 -64 -37 -149 58 -179 9 -3 32 -1 52 4 92 25 105 154
19 198 -44 22 -92 14 -129 -23z m116 -36 c24 -24 25 -38 4 -68 -29 -42 -104
-17 -104 35 0 20 38 53 60 53 11 0 29 -9 40 -20z"/>
<path d="M1430 845 c0 -104 0 -105 24 -105 18 0 25 7 30 30 3 17 10 30 15 30
5 0 19 -13 31 -30 15 -22 30 -30 51 -30 34 0 35 2 13 36 -15 23 -15 26 0 43
16 18 22 77 8 97 -15 23 -52 34 -111 34 l-61 0 0 -105z m126 40 c9 -23 -15
-45 -47 -45 -24 0 -29 4 -29 23 0 13 3 27 7 30 13 13 64 7 69 -8z"/>
<path d="M1650 845 l0 -105 80 0 c79 0 80 0 80 25 0 24 -3 25 -55 25 -41 0
-55 4 -55 14 0 8 -6 16 -12 19 -10 4 -10 7 0 18 10 11 12 10 12 -4 0 -14 9
-17 46 -17 41 0 45 2 42 23 -2 18 -10 23 -46 25 -61 4 -49 26 16 30 48 3 52 5
52 28 0 23 -2 24 -80 24 l-80 0 0 -105z"/>
</g>
</svg>
